<svg xmlns="http://www.w3.org/2000/svg" xmlns:xlink="http://www.w3.org/1999/xlink" width="115" height="115" viewBox="0 0 115 115"><defs><clipPath id="a"><circle cx="57.5" cy="57.5" r="57.5" fill="#f79e1b"/></clipPath></defs><g transform="translate(1415.521 -1828.812)"><path d="M57.5,0A57.5,57.5,0,1,1,0,57.5,57.5,57.5,0,0,1,57.5,0Z" transform="translate(-1415.521 1828.812)" fill="#ffc06c"/><g transform="translate(-1415.521 1828.812)" clip-path="url(#a)"><path d="M-1295.343,1885.017" transform="translate(1338.866 -1864.662)" fill="#f79e1b" stroke="#6370f1" stroke-linecap="round" stroke-miterlimit="10" stroke-width="20" fill-rule="evenodd"/><circle cx="6.206" cy="6.206" r="6.206" transform="translate(32.248 40.513)" fill="#f79e1b"/><circle cx="6.206" cy="6.206" r="6.206" transform="translate(64.758 40.513)" fill="#f79e1b"/><path d="M-1274.231,2034.439a12.5,12.5,0,0,1-8.865-3.666,3.622,3.622,0,0,1,0-5.122,3.622,3.622,0,0,1,5.122,0,5.3,5.3,0,0,0,7.485,0,3.622,3.622,0,0,1,5.122,0,3.622,3.622,0,0,1,0,5.122A12.5,12.5,0,0,1-1274.231,2034.439Z" transform="translate(1331.731 -1953.688)" fill="#f79e1b"/><path d="M-1258.647,1922.235a3.611,3.611,0,0,1-2.481-.984,17.93,17.93,0,0,1-5.621-13.009v-18.594a16.161,16.161,0,0,1,8.065-14.071,16.082,16.082,0,0,1,16.137-.174,42.439,42.439,0,0,1,8.809,6.558,42.126,42.126,0,0,1,12.79,28.035,3.622,3.622,0,0,1-3.42,3.813,3.625,3.625,0,0,1-3.813-3.42,34.9,34.9,0,0,0-10.6-23.227,35.191,35.191,0,0,0-7.305-5.437,8.9,8.9,0,0,0-8.936.1,8.986,8.986,0,0,0-4.486,7.823v18.594a10.657,10.657,0,0,0,3.342,7.734,3.622,3.622,0,0,1,.156,5.119A3.613,3.613,0,0,1-1258.647,1922.235Z" transform="translate(1320.629 -1857.2)" fill="#f79e1b"/><path d="M-1369.61,1913.759c-.066,0-.133,0-.2-.005a3.622,3.622,0,0,1-3.42-3.813,42.125,42.125,0,0,1,12.79-28.035,41.732,41.732,0,0,1,12.534-8.375,3.62,3.62,0,0,1,4.761,1.888,3.621,3.621,0,0,1-1.888,4.761,34.522,34.522,0,0,0-10.366,6.928,34.9,34.9,0,0,0-10.6,23.227A3.622,3.622,0,0,1-1369.61,1913.759Z" transform="translate(1388.549 -1857.145)" fill="#f79e1b"/><g transform="translate(15.315 87.663)"><path d="M-1156.645,2101.1a3.622,3.622,0,0,1-3.622-3.622v-22.991a3.622,3.622,0,0,1,3.622-3.622,3.622,3.622,0,0,1,3.622,3.622v22.991A3.622,3.622,0,0,1-1156.645,2101.1Z" transform="translate(1237.395 -2070.87)" fill="#f79e1b"/><path d="M-1369.612,2101.1a3.622,3.622,0,0,1-3.622-3.622v-22.991a3.622,3.622,0,0,1,3.622-3.622,3.622,3.622,0,0,1,3.622,3.622v22.991A3.622,3.622,0,0,1-1369.612,2101.1Z" transform="translate(1373.234 -2070.87)" fill="#f79e1b"/></g><path d="M-1384.273,2018.368a11.959,11.959,0,0,1-11.946-11.946,11.959,11.959,0,0,1,11.946-11.945,11.959,11.959,0,0,1,11.945,11.945A11.959,11.959,0,0,1-1384.273,2018.368Zm0-16.648a4.708,4.708,0,0,0-4.7,4.7,4.708,4.708,0,0,0,4.7,4.7,4.708,4.708,0,0,0,4.7-4.7A4.708,4.708,0,0,0-1384.273,2001.72Z" transform="translate(1403.209 -1934.48)" fill="#f79e1b"/><path d="M-1171.306,2018.368a11.959,11.959,0,0,1-11.945-11.946,11.959,11.959,0,0,1,11.945-11.945,11.959,11.959,0,0,1,11.946,11.945A11.959,11.959,0,0,1-1171.306,2018.368Zm0-16.648a4.708,4.708,0,0,0-4.7,4.7,4.708,4.708,0,0,0,4.7,4.7,4.708,4.708,0,0,0,4.7-4.7A4.708,4.708,0,0,0-1171.306,2001.72Z" transform="translate(1267.369 -1934.48)" fill="#f79e1b"/><g transform="translate(27.057 91.002)"><path d="M-1214.257,2113.873a3.621,3.621,0,0,1-3.622-3.622v-17.417a12.759,12.759,0,0,1,12.744-12.744,3.621,3.621,0,0,1,3.622,3.622,3.622,3.622,0,0,1-3.622,3.622,5.507,5.507,0,0,0-5.5,5.5v17.417A3.622,3.622,0,0,1-1214.257,2113.873Z" transform="translate(1262.4 -2080.09)" fill="#f79e1b"/><path d="M-1328.068,2113.873a3.621,3.621,0,0,1-3.622-3.622v-17.417a5.507,5.507,0,0,0-5.5-5.5,3.622,3.622,0,0,1-3.622-3.622,3.621,3.621,0,0,1,3.621-3.622,12.759,12.759,0,0,1,12.745,12.744v17.417A3.622,3.622,0,0,1-1328.068,2113.873Z" transform="translate(1340.812 -2080.09)" fill="#f79e1b"/></g></g></g></svg>