<svg xmlns="http://www.w3.org/2000/svg" xmlns:xlink="http://www.w3.org/1999/xlink" width="119" height="119" viewBox="0 0 119 119"><defs><clipPath id="a"><circle cx="57.5" cy="57.5" r="57.5" fill="#f79e1b"/></clipPath></defs><g transform="translate(1797 -1826.812)"><circle cx="57.5" cy="57.5" r="57.5" transform="translate(-1795 1828.812)" fill="#ffc06c"/><g transform="translate(-1795 1828.812)" clip-path="url(#a)"><path d="M-1667.118,1887.017" transform="translate(1713.432 -1865.938)" fill="#f79e1b" stroke="#6370f1" stroke-linecap="round" stroke-miterlimit="10" stroke-width="20" fill-rule="evenodd"/><g transform="translate(35.763 41.238)"><circle cx="6.206" cy="6.206" r="6.206" fill="#f79e1b"/><circle cx="6.206" cy="6.206" r="6.206" transform="translate(32.51)" fill="#f79e1b"/></g><path d="M-1651.709,2036.439a12.5,12.5,0,0,1-8.865-3.666,3.622,3.622,0,0,1,0-5.122,3.622,3.622,0,0,1,5.122,0,5.3,5.3,0,0,0,7.485,0,3.622,3.622,0,0,1,5.122,0,3.622,3.622,0,0,1,0,5.122A12.5,12.5,0,0,1-1651.709,2036.439Z" transform="translate(1709.934 -1954.964)" fill="#f79e1b"/><path d="M-1640.082,2014.809a3.622,3.622,0,0,1-3.622-3.622v-43.332a16.235,16.235,0,0,1,11.908-15.583,33.717,33.717,0,0,0,23.063-22.465,4.923,4.923,0,0,1,4.863-3.474,5.662,5.662,0,0,0,4.482-1.962,5.675,5.675,0,0,0,.042-7.343,5.673,5.673,0,0,0-4.329-2.012h-.021a4.923,4.923,0,0,1-4.759-3.606,33.471,33.471,0,0,0-12.3-18.016,9.978,9.978,0,0,0-10.622-.921,10,10,0,0,0-5.608,9.093v9.654a14.116,14.116,0,0,0,6.29,11.762,3.621,3.621,0,0,1,1,5.023,3.621,3.621,0,0,1-5.023,1,21.343,21.343,0,0,1-9.511-17.786v-9.654a17.331,17.331,0,0,1,9.6-15.564,17.314,17.314,0,0,1,18.2,1.579,40.785,40.785,0,0,1,14.493,20.308,12.909,12.909,0,0,1,8.117,4.45,12.968,12.968,0,0,1-.092,16.779,12.873,12.873,0,0,1-8.41,4.391,41.05,41.05,0,0,1-27.539,25.744,8.971,8.971,0,0,0-6.594,8.6v43.332A3.622,3.622,0,0,1-1640.082,2014.809Z" transform="translate(1698.832 -1864.099)" fill="#f79e1b"/><path d="M-1758.942,1971.569a3.622,3.622,0,0,1-3.622-3.622v-55.671a12.924,12.924,0,0,1-9.283-12.389,12.925,12.925,0,0,1,11.181-12.79,40.851,40.851,0,0,1,23.168-25.226,11.857,11.857,0,0,0,6-5.608l1.395-2.741a3.621,3.621,0,0,1,4.87-1.585,3.621,3.621,0,0,1,1.585,4.87l-1.395,2.741a19.1,19.1,0,0,1-9.685,9.016,33.533,33.533,0,0,0-19.412,22.01,4.971,4.971,0,0,1-4.789,3.652h0a5.67,5.67,0,0,0-5.67,5.662,5.663,5.663,0,0,0,4.956,5.618,4.938,4.938,0,0,1,4.327,4.895v57.548A3.622,3.622,0,0,1-1758.942,1971.569Zm0-84.587h0Z" transform="translate(1780.232 -1843.31)" fill="#f79e1b"/></g></g><circle cx="59.5" cy="59.5" r="59.5" fill="none"/></svg>