<svg xmlns="http://www.w3.org/2000/svg" xmlns:xlink="http://www.w3.org/1999/xlink" width="115" height="115" viewBox="0 0 115 115"><defs><clipPath id="a"><circle cx="57.5" cy="57.5" r="57.5" fill="#f79e1b"/></clipPath></defs><g transform="translate(1415.521 -2567.647)"><circle cx="57.5" cy="57.5" r="57.5" transform="translate(-1415.521 2567.647)" fill="#ffc06c"/><g transform="translate(-1415.521 2567.647)" clip-path="url(#a)"><g transform="translate(17.481 14.429)"><path d="M-1284.936,2777.274a12.5,12.5,0,0,1-8.864-3.666,3.622,3.622,0,0,1,0-5.122,3.622,3.622,0,0,1,5.122,0,5.3,5.3,0,0,0,7.485,0,3.623,3.623,0,0,1,5.122,0,3.622,3.622,0,0,1,0,5.122A12.5,12.5,0,0,1-1284.936,2777.274Z" transform="translate(1321.078 -2709.503)" fill="#f79e1b"/><g transform="translate(15.282 28.333)"><circle cx="6.206" cy="6.206" r="6.206" transform="translate(33.029)" fill="#f79e1b"/><circle cx="6.206" cy="6.206" r="6.206" fill="#f79e1b"/></g><path d="M-1179.469,2692.049h-22.915a13.747,13.747,0,0,1-13.732-13.731v-14.974a6.1,6.1,0,0,1,5.256-6.048,8.427,8.427,0,0,0,5.215-2.951,8.32,8.32,0,0,0-.18-10.921,8.323,8.323,0,0,0-4.871-2.715,6.6,6.6,0,0,1-5.378-5.537,27.383,27.383,0,0,0-16.017-20.741,3.622,3.622,0,0,1-1.876-4.766,3.621,3.621,0,0,1,4.766-1.875,34.691,34.691,0,0,1,20.22,25.871,15.491,15.491,0,0,1,8.572,4.953,15.521,15.521,0,0,1,.325,20.371,15.678,15.678,0,0,1-8.79,5.308v14.024a6.5,6.5,0,0,0,6.488,6.488h22.915a3.622,3.622,0,0,1,3.622,3.622A3.622,3.622,0,0,1-1179.469,2692.049Z" transform="translate(1282.428 -2607.488)" fill="#f79e1b"/><path d="M-1335.286,2748.509a3.622,3.622,0,0,1-3.622-3.622v-41.949a6.777,6.777,0,0,0-4.939-6.519,32.051,32.051,0,0,1-23.4-30.8v-19.908a38.5,38.5,0,0,1,20.468-34.4,14.238,14.238,0,0,1,14.069.473,14.453,14.453,0,0,1,7.021,12.447v26.725a11.527,11.527,0,0,1-11.514,11.514,3.622,3.622,0,0,1-3.622-3.622,3.622,3.622,0,0,1,3.622-3.622,4.276,4.276,0,0,0,4.271-4.271v-26.725a7.262,7.262,0,0,0-3.532-6.252,6.959,6.959,0,0,0-6.964-.245,31.275,31.275,0,0,0-16.576,27.977v19.908a24.788,24.788,0,0,0,18.1,23.825,14.04,14.04,0,0,1,10.247,13.5v41.949A3.622,3.622,0,0,1-1335.286,2748.509Z" transform="translate(1367.252 -2608.883)" fill="#f79e1b"/></g></g></g></svg>