<svg xmlns="http://www.w3.org/2000/svg" xmlns:xlink="http://www.w3.org/1999/xlink" width="115" height="115" viewBox="0 0 115 115"><defs><clipPath id="a"><circle cx="57.5" cy="57.5" r="57.5" fill="#f79e1b"/></clipPath></defs><g transform="translate(1795 -2201.866)"><path d="M57.5,0A57.5,57.5,0,1,1,0,57.5,57.5,57.5,0,0,1,57.5,0Z" transform="translate(-1795 2201.866)" fill="#ffc06c"/><g transform="translate(-1795 2201.866)" clip-path="url(#a)"><g transform="translate(8.394 15.575)"><path d="M-1637.224,2407.668a12.5,12.5,0,0,1-8.864-3.666,3.622,3.622,0,0,1,0-5.122,3.623,3.623,0,0,1,5.122,0,5.3,5.3,0,0,0,7.485,0,3.623,3.623,0,0,1,5.122,0,3.622,3.622,0,0,1,0,5.122A12.5,12.5,0,0,1-1637.224,2407.668Z" transform="translate(1692.301 -2342.429)" fill="#f79e1b"/><path d="M-1745.217,2485.707a3.622,3.622,0,0,1-3.622-3.622v-44.87a3.621,3.621,0,0,1,3.622-3.622,3.622,3.622,0,0,1,3.622,3.622v44.87A3.622,3.622,0,0,1-1745.217,2485.707Z" transform="translate(1757.163 -2365.247)" fill="#f79e1b"/><path d="M-1743.868,2282.142a3.663,3.663,0,0,1-.575-.046,3.622,3.622,0,0,1-3.005-4.148,41.771,41.771,0,0,1,10.534-21.406,35.3,35.3,0,0,1,22.3-11.648,3.623,3.623,0,0,1,3.989,3.213,3.621,3.621,0,0,1-3.213,3.988c-10.926,1.176-23.913,11.038-26.461,27A3.623,3.623,0,0,1-1743.868,2282.142Z" transform="translate(1756.305 -2244.873)" fill="#f79e1b"/><circle cx="6.206" cy="6.206" r="6.206" transform="translate(30.495 25.801)" fill="#f79e1b"/><circle cx="6.206" cy="6.206" r="6.206" transform="translate(67.146 25.801)" fill="#f79e1b"/><g transform="translate(31.684 0.515)"><path d="M-1647.812,2372.916a3.622,3.622,0,0,1-3.622-3.622v-41.141a14.776,14.776,0,0,1,8.138-13.308,31.187,31.187,0,0,0,13.2-12.492,33.957,33.957,0,0,0,4.35-16.756,35.193,35.193,0,0,0-18.491-30.989,8.722,8.722,0,0,0-8.688.2,8.921,8.921,0,0,0-4.4,7.723v9.362a30.637,30.637,0,0,1-12.563,24.69l-8.7,6.332a3.621,3.621,0,0,1-5.059-.8,3.621,3.621,0,0,1,.8-5.059l8.7-6.333a23.37,23.37,0,0,0,9.584-18.834v-9.362a16.1,16.1,0,0,1,7.931-13.944,15.91,15.91,0,0,1,15.841-.356A42.429,42.429,0,0,1-1618.5,2285.6c0,15.368-8.256,29.056-21.545,35.723a7.67,7.67,0,0,0-4.143,6.834v41.141A3.622,3.622,0,0,1-1647.812,2372.916Z" transform="translate(1684.335 -2246.296)" fill="#f79e1b"/></g><path d="M-1759.878,2379.346a11.959,11.959,0,0,1-11.945-11.946,11.959,11.959,0,0,1,11.945-11.945,11.959,11.959,0,0,1,11.946,11.945A11.959,11.959,0,0,1-1759.878,2379.346Zm0-16.648a4.707,4.707,0,0,0-4.7,4.7,4.707,4.707,0,0,0,4.7,4.7,4.708,4.708,0,0,0,4.7-4.7A4.708,4.708,0,0,0-1759.878,2362.7Z" transform="translate(1771.823 -2315.407)" fill="#f79e1b"/></g><path d="M-1693.276,2475.035a3.621,3.621,0,0,1-3.622-3.622V2454a5.508,5.508,0,0,0-5.5-5.5,3.622,3.622,0,0,1-3.622-3.622,3.622,3.622,0,0,1,3.622-3.622A12.759,12.759,0,0,1-1689.655,2454v17.417A3.622,3.622,0,0,1-1693.276,2475.035Z" transform="translate(1738.245 -2354.557)" fill="#f79e1b"/></g></g></svg>