<svg xmlns="http://www.w3.org/2000/svg" xmlns:xlink="http://www.w3.org/1999/xlink" width="115" height="115" viewBox="0 0 115 115"><defs><clipPath id="a"><circle cx="57.5" cy="57.5" r="57.5" fill="#f79e1b"/></clipPath></defs><g transform="translate(1415.521 -2201.866)"><circle cx="57.5" cy="57.5" r="57.5" transform="translate(-1415.521 2201.866)" fill="#ffc06c"/><g transform="translate(-1415.521 2201.866)" clip-path="url(#a)"><path d="M-1274.231,2404.494a12.5,12.5,0,0,1-8.865-3.666,3.622,3.622,0,0,1,0-5.122,3.622,3.622,0,0,1,5.122,0,5.3,5.3,0,0,0,7.485,0,3.622,3.622,0,0,1,5.122,0,3.622,3.622,0,0,1,0,5.122A12.5,12.5,0,0,1-1274.231,2404.494Z" transform="translate(1331.731 -2324.829)" fill="#f79e1b"/><circle cx="6.206" cy="6.206" r="6.206" transform="translate(35.268 40.227)" fill="#f79e1b"/><circle cx="6.206" cy="6.206" r="6.206" transform="translate(67.778 40.227)" fill="#f79e1b"/><path d="M-1202.473,2381.371a3.622,3.622,0,0,1-3.622-3.622V2297.9l.042-.276a6.473,6.473,0,0,1,5.277-5.433,7.825,7.825,0,0,0,4.576-2.552,7.975,7.975,0,0,0,0-10.456,7.829,7.829,0,0,0-4.577-2.552,6.472,6.472,0,0,1-5.277-5.433,25.793,25.793,0,0,0-12.3-18.225,3.622,3.622,0,0,1-1.247-4.968,3.622,3.622,0,0,1,4.968-1.247,33.019,33.019,0,0,1,15.655,22.844,14.991,14.991,0,0,1,8.19,4.77,15.124,15.124,0,0,1,0,20.076,14.985,14.985,0,0,1-8.068,4.744v78.551A3.622,3.622,0,0,1-1202.473,2381.371Z" transform="translate(1290.88 -2230.176)" fill="#f79e1b"/><path d="M-1336.966,2325.582h-4.222a31.848,31.848,0,0,1-31.795-30.792,15.209,15.209,0,0,1-8.185-4.862,15.15,15.15,0,0,1,.093-19.952,14.991,14.991,0,0,1,8.2-4.779,32.931,32.931,0,0,1,19.438-24.789c.128-.056.265-.113.407-.168a13.225,13.225,0,0,1,12.285,1.411,13.49,13.49,0,0,1,5.9,11.149v33.774a3.622,3.622,0,0,1-3.622,3.622,3.622,3.622,0,0,1-3.622-3.622V2252.8a6.169,6.169,0,0,0-2.737-5.165,5.913,5.913,0,0,0-5.562-.651c-.055.022-.106.043-.156.064A26.07,26.07,0,0,0-1365.8,2266.8a6.469,6.469,0,0,1-5.277,5.43,7.823,7.823,0,0,0-4.579,2.555,7.89,7.89,0,0,0-.05,10.39,7.823,7.823,0,0,0,4.63,2.613,6.472,6.472,0,0,1,5.277,5.433l.043.276v.279a24.6,24.6,0,0,0,24.568,24.568h4.222a3.622,3.622,0,0,1,3.622,3.622A3.622,3.622,0,0,1-1336.966,2325.582Z" transform="translate(1395.971 -2225.764)" fill="#f79e1b"/><path d="M-1308.559,2498.729a3.622,3.622,0,0,1-3.622-3.622v-11.469a3.622,3.622,0,0,1,3.622-3.622,3.621,3.621,0,0,1,3.622,3.622v11.469A3.622,3.622,0,0,1-1308.559,2498.729Z" transform="translate(1349.606 -2379.283)" fill="#f79e1b"/></g></g></svg>