<svg xmlns="http://www.w3.org/2000/svg" xmlns:xlink="http://www.w3.org/1999/xlink" width="115" height="115" viewBox="0 0 115 115"><defs><clipPath id="a"><circle cx="57.5" cy="57.5" r="57.5" fill="#f79e1b"/></clipPath></defs><g transform="translate(1795 -2567.647)"><circle cx="57.5" cy="57.5" r="57.5" transform="translate(-1795 2567.647)" fill="#ffc06c"/><g transform="translate(-1795 2567.647)" clip-path="url(#a)"><path d="M-1661.709,2771.091a12.453,12.453,0,0,1-8.865-3.672,3.622,3.622,0,0,1,0-5.122,3.622,3.622,0,0,1,5.122,0,5.259,5.259,0,0,0,3.743,1.55,5.257,5.257,0,0,0,3.742-1.551,3.623,3.623,0,0,1,5.122,0,3.622,3.622,0,0,1,0,5.122A12.454,12.454,0,0,1-1661.709,2771.091Z" transform="translate(1716.312 -2691.127)" fill="#f79e1b"/><g transform="translate(29.506 40.52)"><circle cx="6.206" cy="6.206" r="6.206" fill="#f79e1b"/><circle cx="6.206" cy="6.206" r="6.206" transform="translate(37.78)" fill="#f79e1b"/></g><path d="M-1770.745,2717.155h-30.634a3.621,3.621,0,0,1-3.622-3.622,3.622,3.622,0,0,1,3.622-3.622h30.634a4.828,4.828,0,0,0,4.822-4.822,5.745,5.745,0,0,0-2.588-4.776,44.654,44.654,0,0,1-19.815-36.817,41.173,41.173,0,0,1,5.626-20.618,20.436,20.436,0,0,1,15.434-10.045,20.612,20.612,0,0,1,17.458,6.349l.172.181a16.979,16.979,0,0,1,4.563,10.039l.749,7.907a11.284,11.284,0,0,1-2.88,8.637,11.281,11.281,0,0,1-8.327,3.682,3.622,3.622,0,0,1-3.622-3.622,3.622,3.622,0,0,1,3.622-3.622,3.968,3.968,0,0,0,2.97-1.313,3.968,3.968,0,0,0,1.027-3.08l-.749-7.908a9.706,9.706,0,0,0-2.606-5.736l-.172-.18a13.438,13.438,0,0,0-11.377-4.14,13.252,13.252,0,0,0-10.011,6.51,33.92,33.92,0,0,0-4.632,16.987,37.322,37.322,0,0,0,16.59,30.761,12.972,12.972,0,0,1,5.813,10.8A12.079,12.079,0,0,1-1770.745,2717.155Z" transform="translate(1801.378 -2609.137)" fill="#f79e1b"/><path d="M-1623.051,2633.507h-7.243a26.266,26.266,0,0,0-22.122-26.021l-2.93-.477a31.726,31.726,0,0,1-17.427-8.93l-2.157-2.157a3.622,3.622,0,0,1,0-5.122,3.623,3.623,0,0,1,5.122,0l2.157,2.157a24.52,24.52,0,0,0,13.47,6.9l2.93.477a33.646,33.646,0,0,1,20.2,11.4A33.644,33.644,0,0,1-1623.051,2633.507Z" transform="translate(1719.091 -2581.738)" fill="#f79e1b"/><path d="M-1560.85,2754.121a11.959,11.959,0,0,1-11.945-11.945,11.959,11.959,0,0,1,11.945-11.946,11.959,11.959,0,0,1,11.945,11.946A11.959,11.959,0,0,1-1560.85,2754.121Zm0-16.648a4.708,4.708,0,0,0-4.7,4.7,4.707,4.707,0,0,0,4.7,4.7,4.707,4.707,0,0,0,4.7-4.7A4.708,4.708,0,0,0-1560.85,2737.473Z" transform="translate(1653.268 -2671.349)" fill="#f79e1b"/><path d="M-1546.189,2847.993a3.622,3.622,0,0,1-3.622-3.622v-34.383a3.622,3.622,0,0,1,3.622-3.622,3.622,3.622,0,0,1,3.622,3.622v34.383A3.622,3.622,0,0,1-1546.189,2847.993Z" transform="translate(1638.608 -2719.913)" fill="#f79e1b"/></g></g></svg>