<svg xmlns="http://www.w3.org/2000/svg" width="20.2" height="14" viewBox="0 0 20.2 14"><g transform="translate(0)"><path d="M12,15a3.076,3.076,0,0,1-3-3,2.2,2.2,0,0,1,.1-.8L6.6,8.7A9.281,9.281,0,0,0,4.1,12,8.3,8.3,0,0,0,12,17a9,9,0,0,0,2.5-.3l-1.8-1.8A1.483,1.483,0,0,1,12,15Z" transform="translate(-1.9 -5)" fill="none"/><path d="M12,9a3.076,3.076,0,0,1,3,3,2.2,2.2,0,0,1-.1.8l2.5,2.5A7.574,7.574,0,0,0,19.9,12,8.3,8.3,0,0,0,12,7a9,9,0,0,0-2.5.3l1.8,1.8A1.483,1.483,0,0,1,12,9Z" transform="translate(-1.9 -5)" fill="none"/><g transform="translate(-1.9 -5)"><path d="M9,12a3.076,3.076,0,0,0,3,3,2.2,2.2,0,0,0,.8-.1L9.1,11.2A2.2,2.2,0,0,0,9,12Z"/><path d="M15,12a3.076,3.076,0,0,0-3-3,2.2,2.2,0,0,0-.8.1l3.7,3.7A2.2,2.2,0,0,0,15,12Z"/><path d="M21.9,11.7A10.371,10.371,0,0,0,12,5a9.979,9.979,0,0,0-4.1.8L9.5,7.4A6.249,6.249,0,0,1,12,7a8.173,8.173,0,0,1,7.9,5,9.281,9.281,0,0,1-2.5,3.3l1.4,1.4A11.443,11.443,0,0,0,22,12.4l.1-.3Z"/><path d="M12,17a8.173,8.173,0,0,1-7.9-5A9.281,9.281,0,0,1,6.6,8.7L5.2,7.3A11.443,11.443,0,0,0,2,11.6l-.1.4.1.3A10.371,10.371,0,0,0,11.9,19a9.979,9.979,0,0,0,4.1-.8l-1.6-1.6A5.464,5.464,0,0,1,12,17Z"/></g><path d="M16.5,15.8l-2.1-2.1L10.2,9.5,8.4,7.7,6.9,6.2c-.3.2-.6.3-.9.5L7.4,8.1l2.1,2.1,4.2,4.2,1.9,1.9,1.5,1.5c.3-.2.6-.3.9-.5Z" transform="translate(-1.9 -5)"/></g></svg>