<svg xmlns="http://www.w3.org/2000/svg" width="44.444" height="40" viewBox="0 0 44.444 40"><path d="M42,8.667H36.253L30.238,2.651A2.212,2.212,0,0,0,28.667,2H19.778a2.213,2.213,0,0,0-1.571.651L12.191,8.667H6.444A4.449,4.449,0,0,0,2,13.111V37.556A4.449,4.449,0,0,0,6.444,42H42a4.449,4.449,0,0,0,4.444-4.444V13.111A4.449,4.449,0,0,0,42,8.667ZM24.222,35.333A11.261,11.261,0,0,1,13.111,24.222,11.259,11.259,0,0,1,24.222,13.111,11.259,11.259,0,0,1,35.333,24.222,11.261,11.261,0,0,1,24.222,35.333Z" transform="translate(-2 -2)"/><path d="M18.379,9H13.69v4.69H9v4.69h4.69v4.69h4.69v-4.69h4.69V13.69h-4.69Z" transform="translate(6.188 6.127)"/></svg>