<svg xmlns="http://www.w3.org/2000/svg" width="340.886" height="45.721" viewBox="0 0 340.886 45.721"><g transform="translate(2093 -190)"><g transform="translate(-2093 190)"><g transform="translate(89.333 0)"><path fill="#ffffff" d="M1835.165,550.168a20.256,20.256,0,0,1,7.225-4.429,24.826,24.826,0,0,1,8.423-1.477,22.517,22.517,0,0,1,7.507,1.094,11.18,11.18,0,0,1,4.971,3.385,14.447,14.447,0,0,1,2.786,5.783,34.161,34.161,0,0,1,.882,8.285v17.7h-10.584v-3.748h-.208a8.689,8.689,0,0,1-4.052,3.381,14.413,14.413,0,0,1-5.883,1.2,18.03,18.03,0,0,1-4.369-.563,12.817,12.817,0,0,1-4.123-1.832,9.92,9.92,0,0,1-3.065-3.382,10.443,10.443,0,0,1-1.2-5.214,8.853,8.853,0,0,1,2.079-6.13,13.639,13.639,0,0,1,5.356-3.593,28.4,28.4,0,0,1,7.294-1.691,74.937,74.937,0,0,1,7.823-.423v-.568a4.34,4.34,0,0,0-1.833-3.864,7.862,7.862,0,0,0-4.51-1.241,11.239,11.239,0,0,0-4.759,1.058,15.218,15.218,0,0,0-3.912,2.537Zm21.211,15.055H1854.9q-1.9,0-3.836.176a15.736,15.736,0,0,0-3.448.668,6.381,6.381,0,0,0-2.5,1.442,3.309,3.309,0,0,0-.985,2.5,3.028,3.028,0,0,0,.457,1.688,3.549,3.549,0,0,0,1.161,1.126,4.92,4.92,0,0,0,1.618.6,9.345,9.345,0,0,0,1.76.175,7.135,7.135,0,0,0,5.384-1.934,7.235,7.235,0,0,0,1.865-5.241Z" transform="translate(-1833.478 -535.896)"/><path fill="#ffffff" d="M2365.356,445.659v13.4a6.009,6.009,0,0,0,.951,3.7q.952,1.234,3.42,1.233a11.848,11.848,0,0,0,1.8-.145,6.032,6.032,0,0,0,1.588-.435l.14,8.447a19.253,19.253,0,0,1-3.031.739,21.529,21.529,0,0,1-3.665.317,17.324,17.324,0,0,1-5.921-.88,9.175,9.175,0,0,1-3.841-2.536,9.929,9.929,0,0,1-2.078-3.944,19.079,19.079,0,0,1-.635-5.106v-14.79h-5.638v-8.647h5.568v-9.234h11.345v9.234h8.248v8.647Z" transform="translate(-2312.82 -427.47)"/><path fill="#ffffff" d="M2842.273,595.9h-11.631l-6.908-21.852h-.14l-6.768,21.852h-11.632l-12.124-35.1h12.477l6.063,22.2h.211l6.273-22.2h11.631l6.485,22.2h.142l6.131-22.2h11.983Z" transform="translate(-2726.69 -551.284)"/><path fill="#ffffff" d="M3698.242,562.8a18.977,18.977,0,0,1-1.55,7.788,17.494,17.494,0,0,1-4.225,5.921,19.351,19.351,0,0,1-6.2,3.77,21.775,21.775,0,0,1-15.036,0,18.836,18.836,0,0,1-6.2-3.77,17.706,17.706,0,0,1-4.19-5.921,18.969,18.969,0,0,1-1.549-7.788,18.725,18.725,0,0,1,1.549-7.753,17.412,17.412,0,0,1,4.19-5.85,18.206,18.206,0,0,1,6.2-3.665,22.907,22.907,0,0,1,15.036,0,18.683,18.683,0,0,1,6.2,3.665,17.207,17.207,0,0,1,4.225,5.85A18.733,18.733,0,0,1,3698.242,562.8Zm-11.137,0a9.967,9.967,0,0,0-.563-3.3,8.7,8.7,0,0,0-1.619-2.845,8.23,8.23,0,0,0-2.6-2,8.714,8.714,0,0,0-7.176,0,7.834,7.834,0,0,0-2.567,2,8.561,8.561,0,0,0-1.547,2.845,10.593,10.593,0,0,0,0,6.6,9.026,9.026,0,0,0,1.582,2.916,7.785,7.785,0,0,0,2.6,2.072,8.712,8.712,0,0,0,7.175,0,7.787,7.787,0,0,0,2.6-2.072,9.056,9.056,0,0,0,1.583-2.916A10.576,10.576,0,0,0,3687.1,562.8Z" transform="translate(-3532.994 -535.896)"/><path fill="#ffffff" d="M4313.319,556.714a9.107,9.107,0,0,0-1.516-.281q-.74-.071-1.444-.071a8.232,8.232,0,0,0-3.913.846,8,8,0,0,0-2.538,2.044,7.773,7.773,0,0,0-1.375,2.608,8.742,8.742,0,0,0-.423,2.467v18.045h-11.551V547.26H4301.7v5.076h.133a11.416,11.416,0,0,1,3.807-4.379,9.845,9.845,0,0,1,5.71-1.695,13.626,13.626,0,0,1,1.375.069,5.422,5.422,0,0,1,1.092.208Z" transform="translate(-4120.589 -537.758)"/><path fill="#ffffff" d="M4721.481,467.941h-14.309l-11.49-16.847h-.211v16.847h-11.62V423.327h11.62v23.749h.211l11.208-14.239h14.028L4707.383,448.7Z" transform="translate(-4486.674 -423.327)"/></g><g transform="translate(0 8.218)"><path fill="#ffffff" d="M5278.171,891.18a6.532,6.532,0,0,1-2.082,4.942,6.973,6.973,0,0,1-4.973,1.976,7.353,7.353,0,0,1-2.787-.53,7.437,7.437,0,0,1-2.292-1.447,6.684,6.684,0,0,1-1.552-2.152,6.469,6.469,0,0,1-.564-2.719,6.539,6.539,0,0,1,.564-2.682,6.982,6.982,0,0,1,1.552-2.223,7.634,7.634,0,0,1,2.292-1.518,7.213,7.213,0,0,1,7.76,1.412A6.532,6.532,0,0,1,5278.171,891.18Z" transform="translate(-4937.285 -860.595)"/><g transform="translate(0 0)"><path fill="#ffffff" d="M1173.431,543.439h0a8.6,8.6,0,0,0-11.853,2.737l-12.682,20.3a8.6,8.6,0,0,0,2.737,11.853h0a8.6,8.6,0,0,0,11.853-2.736l12.682-20.3A8.6,8.6,0,0,0,1173.431,543.439Z" transform="translate(-1105.701 -542.131)"/><path fill="#ffffff" d="M559.532,547.955h0a8.6,8.6,0,0,0-11.853,2.737l-4.286,6.859a8.6,8.6,0,0,0,2.737,11.853h0a8.6,8.6,0,0,0,11.853-2.737l4.286-6.859A8.6,8.6,0,0,0,559.532,547.955Z" transform="translate(-542.084 -546.334)"/><path fill="#ffffff" d="M804.378,545.7h0a8.6,8.6,0,0,0-11.853,2.735l-12.5,19.994a8.6,8.6,0,0,0,2.736,11.848h0a8.6,8.6,0,0,0,11.853-2.735l12.5-19.994A8.6,8.6,0,0,0,804.378,545.7Z" transform="translate(-762.348 -544.237)"/></g><g transform="translate(75.565)"><path fill="#ffffff" d="M1634.449,544.018a1.831,1.831,0,0,1,.149-.736,1.885,1.885,0,0,1,.408-.6,1.958,1.958,0,0,1,.6-.4,1.884,1.884,0,0,1,1.471,0,1.964,1.964,0,0,1,.6.4,1.872,1.872,0,0,1,.407.6,1.823,1.823,0,0,1,.15.736,1.793,1.793,0,0,1-.15.731,1.879,1.879,0,0,1-.407.594,1.9,1.9,0,0,1-.6.4,1.934,1.934,0,0,1-1.471,0,1.89,1.89,0,0,1-1.01-.994A1.8,1.8,0,0,1,1634.449,544.018Zm.3,0a1.546,1.546,0,0,0,.125.615,1.645,1.645,0,0,0,.341.511,1.589,1.589,0,0,0,2.261,0,1.658,1.658,0,0,0,.341-.511,1.546,1.546,0,0,0,.124-.615,1.568,1.568,0,0,0-.124-.623,1.588,1.588,0,0,0-.848-.848,1.622,1.622,0,0,0-1.247,0,1.588,1.588,0,0,0-.848.848A1.569,1.569,0,0,0,1634.748,544.018Zm2.053,1.039-.457-.823h-.3v.823h-.507v-2.128h.914a1.263,1.263,0,0,1,.291.033.826.826,0,0,1,.258.108.548.548,0,0,1,.187.2.652.652,0,0,1,.071.32.532.532,0,0,1-.121.357.713.713,0,0,1-.3.208l.565.9Zm-.366-1.188a.337.337,0,0,0,.212-.075.24.24,0,0,0,.1-.2.2.2,0,0,0-.108-.191.43.43,0,0,0-.2-.058h-.391v.524Z" transform="translate(-1634.449 -542.131)"/></g></g></g></g></svg>