<?xml version="1.0" encoding="UTF-8"?>
<svg width="2812px" height="378px" viewBox="0 0 2812 378" version="1.1" xmlns="http://www.w3.org/2000/svg" xmlns:xlink="http://www.w3.org/1999/xlink">
    <!-- Generator: Sketch 64 (93537) - https://sketch.com -->
    <title>ATWORK_LOGOS_AND_ISOTYPES-09</title>
    <desc>Created with Sketch.</desc>
    <g id="Page-1" stroke="none" stroke-width="1" fill="none" fill-rule="evenodd">
        <g id="ATWORK_LOGOS_AND_ISOTYPES-09" fill="#FFFFFF" fill-rule="nonzero">
            <g id="BLACK" transform="translate(736.000000, 0.000000)">
                <path d="M14.8,117.72 C31.8690148,101.477554 52.1800562,89.0285214 74.4,81.19 C96.6798376,73.1356733 120.189005,69.0110798 143.88,69 C168.3,69 188.943333,72 205.81,78 C222.676667,84 236.343333,93.31 246.81,105.93 C257.27,118.53 264.936667,134.426667 269.81,153.62 C274.683333,172.813333 277.11,195.596667 277.090123,221.97 L277.090123,368 L189.76,368 L189.76,337.09 L188.05,337.09 C180.716667,349.09 169.576667,358.386667 154.63,364.98 C139.326148,371.643212 122.790833,375.009561 106.1,374.86 C93.954876,374.789794 81.8643543,373.228101 70.1,370.21 C57.9624616,367.223107 46.4508599,362.107216 36.1,355.1 C25.6174024,347.893523 16.9611948,338.340193 10.82,327.2 C4.23333333,315.58 0.94,301.246667 0.94,284.2 C0.94,263.286667 6.65333333,246.433333 18.08,233.64 C29.5066667,220.846667 44.2166667,210.966667 62.21,204 C80.21,197.033333 100.266667,192.366667 122.38,190 C143.8144,187.711878 165.35385,186.546952 186.91,186.51 L186.91,181.83 C186.91,167.41 181.87,156.786667 171.79,149.96 C161.71,143.133333 149.306667,139.72 134.58,139.72 C121.01549,139.722968 107.616937,142.703079 95.33,148.45 C83.5635341,153.730302 72.6795387,160.789553 63.06,169.38 L14.8,117.72 Z M189.8,241.9 L177.57,241.9 C167.13,241.9 156.583333,242.386667 145.93,243.36 C136.273897,244.128224 126.734336,245.97643 117.49,248.87 C109.806131,251.209775 102.759603,255.276921 96.89,260.76 C91.47,265.993333 88.76,272.86 88.76,281.36 C88.6202346,286.271174 89.9353343,291.114081 92.54,295.28 C94.9671879,299.076271 98.2433493,302.256578 102.11,304.57 C106.234222,306.988228 110.75395,308.657311 115.46,309.5 C120.247807,310.462104 125.116612,310.964388 130,311 C149.333333,311 164.136667,305.683333 174.41,295.05 C184.683333,284.416667 189.81,270.006667 189.79,251.82 L189.8,241.9 Z" id="Shape"></path>
                <path d="M434.25,150 L434.25,260.5 C434.25,274.066667 436.866667,284.246667 442.1,291.04 C447.333333,297.833333 456.736667,301.223333 470.31,301.21 C475.273404,301.189247 480.227917,300.788071 485.13,300.01 C489.634044,299.424634 494.035642,298.219915 498.21,296.43 L499.37,366.11 C491.214227,368.812182 482.853786,370.85213 474.37,372.21 C464.385756,373.937046 454.272508,374.810204 444.14,374.82 C424.76,374.82 408.48,372.4 395.3,367.56 C382.12,362.72 371.56,355.746667 363.62,346.64 C355.514285,337.234892 349.650171,326.111883 346.47,314.11 C342.983333,301.523333 341.24,287.483333 341.24,271.99 L341.24,150 L294.74,150 L294.74,78.71 L340.67,78.71 L340.67,2.54 L434.25,2.54 L434.25,78.71 L502.25,78.71 L502.25,150 L434.25,150 Z" id="Path"></path>
                <polygon id="Path" points="954.31 368 858.31 368 801.31 187.75 800.15 187.75 744.4 368 648.46 368 548.46 78.43 651.37 78.43 701.37 261.59 703.11 261.59 754.87 78.43 850.8 78.43 904.3 261.59 905.47 261.59 956.05 78.43 1054.9 78.43"></polygon>
                <path d="M1364,221.91 C1364,245.556667 1359.73667,266.97 1351.21,286.15 C1343.1476,304.699665 1331.26999,321.344001 1316.35,335 C1301.42418,348.503337 1284.07482,359.056142 1265.22,366.1 C1225.19869,380.828231 1181.24131,380.828231 1141.22,366.1 C1122.32065,359.148138 1104.95461,348.58518 1090.09,335 C1075.32198,321.280322 1063.55493,304.651203 1055.53,286.16 C1047.00333,266.98 1042.74333,245.566667 1042.74999,221.92 C1042.75667,198.273333 1047.01,176.966667 1055.51,158 C1063.54569,139.686276 1075.31689,123.25224 1090.07,109.75 C1104.93181,96.3688173 1122.31459,86.0880567 1141.2,79.51 C1181.35716,65.5650823 1225.04284,65.5650823 1265.2,79.51 C1284.04316,86.1787757 1301.40904,96.449545 1316.33,109.75 C1331.23653,123.184772 1343.12174,139.630477 1351.2,158 C1359.73333,176.966667 1364,198.27 1364,221.91 Z M1272.13,221.91 C1272.12468,212.636223 1270.55255,203.429994 1267.48,194.68 C1264.55342,186.0832 1260.02342,178.119227 1254.13,171.21 C1248.15696,164.315693 1240.85468,158.696988 1232.66,154.69 C1224.15333,150.443333 1214.29,148.316667 1203.07,148.309984 C1191.85,148.303333 1181.98333,150.43 1173.47,154.69 C1165.33346,158.652014 1158.1208,164.280412 1152.3,171.21 C1146.58742,178.148637 1142.25306,186.114768 1139.53,194.68 C1133.72979,212.373442 1133.72979,231.456558 1139.53,249.15 C1142.34246,257.903086 1146.74996,266.060345 1152.53,273.21 C1158.37665,280.386127 1165.70353,286.215562 1174.01,290.3 C1182.52333,294.553333 1192.38667,296.676667 1203.6,296.670016 C1214.81333,296.663333 1224.67667,294.54 1233.19,290.3 C1241.49507,286.217831 1248.81913,280.387922 1254.66,273.21 C1260.46396,266.065188 1264.89527,257.907776 1267.73,249.15 C1270.62369,240.362497 1272.10543,231.171673 1272.12,221.92 L1272.13,221.91 Z" id="Shape"></path>
                <path d="M1590.69,156.37 C1586.59306,155.244514 1582.40807,154.468402 1578.18,154.05 C1574.11333,153.65 1570.14333,153.453333 1566.27,153.46 C1553.46333,153.46 1542.70333,155.793333 1533.99,160.46 C1525.9253,164.576515 1518.79934,170.316784 1513.06,177.32 C1507.93324,183.694908 1504.08304,190.998069 1501.72,198.83 C1499.58653,205.410805 1498.41115,212.264376 1498.23,219.18 L1498.23,368 L1402.94,368 L1402.94,78.38 L1494.81,78.38 L1494.81,120.25 L1495.9,120.25 C1503.08215,105.707279 1513.89798,93.2656291 1527.3,84.13 C1540.86667,74.7966667 1556.57,70.13 1574.41,70.13 C1578.19382,70.13 1581.97523,70.3207948 1585.74,70.7 C1588.79098,70.9578697 1591.80705,71.5309247 1594.74,72.41 L1590.69,156.37 Z" id="Path"></path>
                <polygon id="Path" points="1937.77 368 1819.77 368 1725 229 1723.26 229 1723.26 368 1627.39 368 1627.39 0 1723.26 0 1723.26 195.9 1725 195.9 1817.45 78.44 1933.16 78.44 1821.48 209.27"></polygon>
            </g>
            <path d="M2811.90001,320.08 C2811.90001,336.386667 2806.17667,349.973333 2794.73,360.84 C2783.77213,371.5054 2769.01962,377.370423 2753.73,377.14 C2745.85219,377.191926 2738.03981,375.707574 2730.73,372.77 C2723.74753,369.983832 2717.33743,365.936422 2711.82,360.83 C2706.40907,355.829014 2702.05651,349.793238 2699.02,343.08 C2695.85701,336.033736 2694.26681,328.383061 2694.36,320.66 C2694.32927,313.039853 2695.91766,305.500107 2699.02,298.54 C2702.04834,291.6496 2706.39685,285.419001 2711.82,280.2 C2717.31185,274.914351 2723.71952,270.671942 2730.73,267.68 C2752.48433,258.528129 2777.59119,263.094438 2794.73,279.32 C2806.18333,290.193333 2811.90667,303.78 2811.90001,320.08 Z" id="PEACH_CORAIL"></path>
            <g id="PEACH_CORAIL-2" transform="translate(0.000000, 67.000000)">
                <path d="M558.69,11.58 L558.69,11.58 C525.449615,-9.1626398 481.689604,0.942709524 460.91,34.16 L356.3,201.57 C335.555534,234.807782 345.656245,278.567086 378.87,299.35 L378.87,299.35 C412.107782,320.094466 455.867086,309.993755 476.65,276.78 L581.26,109.36 C602.004466,76.1222177 591.903755,32.3629139 558.69,11.58 Z" id="Path"></path>
                <path d="M143.92,14.16 L143.92,14.16 C110.684303,-6.57765092 66.9325381,3.52235239 46.15,36.73 L10.79,93.31 C-9.95446563,126.547782 0.146245008,170.307086 33.36,191.09 L33.36,191.09 C66.6003851,211.83264 110.360396,201.72729 131.14,168.51 L166.49,111.93 C187.227651,78.6943026 177.127648,34.9425381 143.92,14.16 Z" id="Path"></path>
                <path d="M346.7,12.87 L346.7,12.87 C313.46482,-7.87629196 269.706224,2.21978022 248.92,35.43 L145.82,200.35 C135.846605,216.30102 132.621433,235.561812 136.854577,253.891681 C141.087721,272.221551 152.432102,288.117615 168.39,298.08 L168.39,298.08 C201.62518,318.826292 245.383776,308.73022 266.17,275.52 L369.27,110.6 C379.243395,94.6489805 382.468567,75.3881884 378.235423,57.0583189 C374.002279,38.7284494 362.657898,22.8323847 346.7,12.87 Z" id="Path"></path>
            </g>
        </g>
    </g>
</svg>