<svg xmlns="http://www.w3.org/2000/svg" width="296.991" height="79.432" viewBox="0 0 296.991 79.432"><g transform="translate(-205.504 -251.017)"><rect width="296.991" height="79.432" transform="translate(205.504 251.017)" fill="none"/><g transform="translate(205.504 264.729)"><rect width="22.753" height="40.889" transform="translate(30.696 5.56)" fill="#ff5f00"/><path d="M222.793,296a25.958,25.958,0,0,1,9.932-20.444,26,26,0,1,0,0,40.888A25.959,25.959,0,0,1,222.793,296Z" transform="translate(-190.652 -270)" fill="#eb001b"/><path d="M290.97,296A26,26,0,0,1,248.9,316.448a26.008,26.008,0,0,0,0-40.888A26,26,0,0,1,290.97,296Zm-2.481,16.114v-.837h.338v-.171h-.86v.171h.338v.837Zm1.669,0v-1.01h-.264l-.3.694-.3-.694h-.264v1.01h.186v-.761l.285.656h.193l.284-.658v.763Z" transform="translate(-206.825 -270)" fill="#f79e1b"/><path d="M358.532,308.809V297.955c0-4.088-2.6-6.838-6.8-6.874a6.7,6.7,0,0,0-6.078,3.075,6.353,6.353,0,0,0-5.717-3.075,5.718,5.718,0,0,0-5.065,2.569v-2.134h-3.763v17.294h3.8v-9.588c0-3,1.664-4.594,4.233-4.594,2.5,0,3.763,1.627,3.763,4.559v9.624h3.8v-9.588c0-3,1.736-4.594,4.233-4.594,2.569,0,3.8,1.627,3.8,4.559v9.624Zm56.223-17.294H408.6v-5.246h-3.8v5.246H401.3v3.437h3.51v7.887c0,4.016,1.555,6.4,6.005,6.4a8.837,8.837,0,0,0,4.7-1.339l-1.085-3.219a6.949,6.949,0,0,1-3.328.977c-1.882,0-2.5-1.158-2.5-2.894v-7.815h6.15Zm32.091-.434a5.1,5.1,0,0,0-4.558,2.532v-2.1h-3.727v17.294h3.762v-9.7c0-2.858,1.231-4.45,3.691-4.45a6.129,6.129,0,0,1,2.351.435l1.158-3.546a8.037,8.037,0,0,0-2.678-.47ZM398.33,292.89a12.937,12.937,0,0,0-7.055-1.809c-4.378,0-7.2,2.1-7.2,5.535,0,2.822,2.1,4.559,5.969,5.1l1.773.253c2.062.29,3.04.832,3.04,1.809,0,1.339-1.375,2.1-3.944,2.1a9.214,9.214,0,0,1-5.753-1.809L383.388,307a12.478,12.478,0,0,0,7.489,2.244c4.993,0,7.887-2.352,7.887-5.644,0-3.039-2.279-4.631-6.042-5.174l-1.773-.253c-1.628-.217-2.931-.542-2.931-1.7,0-1.266,1.23-2.026,3.292-2.026a11.143,11.143,0,0,1,5.391,1.484Zm100.8-1.809a5.1,5.1,0,0,0-4.559,2.532v-2.1H490.84v17.294H494.6v-9.7c0-2.858,1.23-4.45,3.69-4.45a6.13,6.13,0,0,1,2.352.435l1.158-3.546a8.04,8.04,0,0,0-2.678-.47Zm-48.481,9.081c0,5.246,3.655,9.081,9.226,9.081a9.059,9.059,0,0,0,6.223-2.063l-1.809-3.039a7.6,7.6,0,0,1-4.523,1.556,5.545,5.545,0,0,1,0-11.07,7.6,7.6,0,0,1,4.523,1.555l1.809-3.039a9.059,9.059,0,0,0-6.223-2.062c-5.571,0-9.226,3.835-9.226,9.081Zm35.239,0v-8.647h-3.763v2.1a6.56,6.56,0,0,0-5.463-2.532c-4.848,0-8.647,3.8-8.647,9.081s3.8,9.081,8.647,9.081a6.562,6.562,0,0,0,5.463-2.533v2.1h3.763Zm-14,0c0-3.04,1.99-5.535,5.246-5.535,3.112,0,5.21,2.387,5.21,5.535s-2.1,5.535-5.21,5.535c-3.256,0-5.246-2.5-5.246-5.535Zm-45.4-9.081c-5.065,0-8.611,3.69-8.611,9.081,0,5.5,3.69,9.081,8.864,9.081a10.511,10.511,0,0,0,7.091-2.424l-1.845-2.786a8.239,8.239,0,0,1-5.029,1.809,4.8,4.8,0,0,1-5.174-4.233h12.844c.036-.47.072-.94.072-1.447-.036-5.391-3.365-9.081-8.212-9.081Zm-.073,3.365c2.424,0,3.98,1.52,4.378,4.2H421.81c.4-2.5,1.918-4.2,4.595-4.2Zm94.392,5.717V284.569h-3.763v9.044a6.56,6.56,0,0,0-5.463-2.532c-4.848,0-8.647,3.8-8.647,9.081s3.8,9.081,8.647,9.081a6.562,6.562,0,0,0,5.463-2.533v2.1H520.8Zm4.4,7.051a1.1,1.1,0,0,1,.434.086,1.13,1.13,0,0,1,.355.235,1.1,1.1,0,0,1,.239.35,1.082,1.082,0,0,1,0,.852,1.1,1.1,0,0,1-.239.348,1.149,1.149,0,0,1-.355.237,1.08,1.08,0,0,1-.434.087,1.12,1.12,0,0,1-1.037-.672,1.081,1.081,0,0,1,0-.852,1.122,1.122,0,0,1,.238-.35,1.11,1.11,0,0,1,.356-.235A1.141,1.141,0,0,1,525.194,307.213Zm0,1.953a.814.814,0,0,0,.331-.067.858.858,0,0,0,.269-.184.856.856,0,0,0-.269-1.392.825.825,0,0,0-.331-.066.865.865,0,0,0-.338.066.834.834,0,0,0-.272.182.855.855,0,0,0,.61,1.461Zm.064-1.37a.468.468,0,0,1,.3.087.293.293,0,0,1,.106.238.276.276,0,0,1-.084.208.4.4,0,0,1-.241.1l.334.385h-.261l-.309-.382h-.1v.382h-.217V307.8Zm-.253.191v.272h.251a.243.243,0,0,0,.137-.034.115.115,0,0,0,.051-.1.113.113,0,0,0-.051-.1.249.249,0,0,0-.137-.033Zm-18.21-7.826c0-3.04,1.989-5.535,5.246-5.535,3.111,0,5.209,2.387,5.209,5.535s-2.1,5.535-5.209,5.535c-3.256,0-5.246-2.5-5.246-5.535Zm-127.062,0v-8.647h-3.763v2.1a6.56,6.56,0,0,0-5.463-2.532c-4.848,0-8.647,3.8-8.647,9.081s3.8,9.081,8.647,9.081a6.562,6.562,0,0,0,5.463-2.533v2.1h3.763Zm-14,0c0-3.04,1.99-5.535,5.246-5.535,3.112,0,5.21,2.387,5.21,5.535s-2.1,5.535-5.21,5.535C367.723,305.7,365.732,303.2,365.732,300.162Z" transform="translate(-229.653 -274.045)"/></g></g></svg>